<?xml version="1.0" encoding="UTF-8" standalone="no"?>
<svg width="420px" height="130px" viewBox="0 0 420 130" version="1.1" xmlns="http://www.w3.org/2000/svg" xmlns:xlink="http://www.w3.org/1999/xlink" xmlns:sketch="http://www.bohemiancoding.com/sketch/ns">
    <!-- Generator: Sketch 3.2.2 (9983) - http://www.bohemiancoding.com/sketch -->
    <title>anna-freud-centre-logo</title>
    <desc>Created with Sketch.</desc>
    <defs></defs>
    <g id="Page-1" stroke="none" stroke-width="1" fill="none" fill-rule="evenodd" sketch:type="MSPage">
        <g id="anna-freud-centre-logo" sketch:type="MSLayerGroup" fill="#111111">
            <path d="M28.2678039,0.31825 C29.9758039,0.31825 31.6838039,0.335 33.3918039,0.309875 C34.9742157,0.293125 35.9956667,1.030125 36.5482549,2.504125 C42.8276667,19.589125 49.1238235,36.66575 55.4032353,53.75075 C56.207,55.953375 54.9594902,57.795875 52.6068039,57.83775 C49.6931569,57.896375 46.7795098,57.879625 43.8742353,57.846125 C42.3085686,57.829375 41.3038627,56.9835 40.7763922,55.342 C40.1819412,53.4995 39.5958627,51.648625 39.0851373,49.781 C38.8590784,49.0105 38.5576667,48.667125 37.6701765,48.6755 C31.3405294,48.717375 25.0108824,48.709 18.6728627,48.6755 C17.8272353,48.6755 17.4588431,48.935125 17.2411569,49.7475 C16.7388039,51.615125 16.1276078,53.457625 15.5331569,55.29175 C14.9219608,57.16775 13.9842353,57.846125 12.0752941,57.8545 C9.39607843,57.862875 6.7084902,57.87125 4.02927451,57.8545 C1.29982353,57.829375 0.0690588235,56.070625 1.02352941,53.51625 C7.24433333,36.649 13.4735098,19.790125 19.7026863,2.93125 C20.4562157,0.871 21.2348627,0.326625 23.4033529,0.31825 C25.0276275,0.3015 26.6435294,0.309875 28.2678039,0.31825 L28.2678039,0.31825 Z M35.4095882,38.164875 C32.9564314,30.208625 30.5535098,22.419875 28.1003529,14.463625 C25.722549,22.4785 23.4117255,30.284 21.0841569,38.164875 L35.4095882,38.164875 L35.4095882,38.164875 Z" id="Fill-1" sketch:type="MSShapeGroup"></path>
            <path d="M28.0919804,68.381875 C37.9297255,68.649875 45.5654902,72.3935 50.990902,80.324625 C52.4058627,82.39325 52.0542157,83.775125 49.8438627,84.897375 C48.0688824,85.7935 46.293902,86.672875 44.510549,87.543875 C42.4843922,88.532125 41.169902,88.213875 39.8805294,86.321125 C37.9548431,83.507125 35.4430784,81.48875 32.1108039,80.676375 C26.0825686,79.21075 20.3808627,81.798625 17.5090784,87.7365 C13.8753922,95.25725 13.9172549,103.037625 17.777,110.416 C22.3567843,119.1595 33.6346078,119.796 39.6209804,111.9235 C41.5299216,109.419375 42.4090392,109.21 45.2222157,110.617 C46.8297451,111.421 48.4372745,112.233375 50.0364314,113.0625 C52.0877059,114.109375 52.4728431,115.575 51.1416078,117.451 C46.1431961,124.486 39.3446863,128.52275 30.754451,129.301625 C21.8711765,130.105625 14.1349412,127.475875 8.03972549,120.775875 C4.17998039,116.521375 2.09521569,111.37075 1.19935294,105.74275 C0.0104509804,98.330875 0.496058824,91.053 3.85345098,84.23575 C8.86023529,74.093625 17.090451,68.79225 28.0919804,68.381875" id="Fill-2" sketch:type="MSShapeGroup"></path>
            <path d="M407.56102,54.21975 C407.318216,54.378875 407.067039,54.48775 406.891216,54.672 C400.00898,62.0755 385.750529,59.9985 380.400471,48.72575 C377.955686,43.558375 377.830098,38.097875 378.315706,32.57875 C378.650608,28.81 379.705549,25.233875 381.756824,22.0095 C386.964549,13.810375 397.162314,11.6915 405.208333,17.126875 C405.727431,17.478625 406.238157,17.8555 407.000059,18.3915 L407.000059,13.726625 C407.000059,10.3515 406.991686,6.976375 407.008431,3.592875 C407.016804,1.45725 408.096863,0.360125 410.240235,0.31825 C411.998471,0.293125 413.756706,0.3015 415.514941,0.31825 C418.127176,0.335 419.198863,1.398625 419.198863,4.045125 C419.207235,16.76675 419.198863,29.49675 419.198863,42.21 C419.198863,46.14625 419.207235,50.074125 419.198863,54.002 C419.19049,56.757375 418.076941,57.8545 415.322373,57.8545 L411.998471,57.8545 C408.641078,57.8545 408.172216,57.477625 407.56102,54.21975 L407.56102,54.21975 Z M390.891275,36.4145 C390.849412,39.923625 391.184314,43.173125 392.867196,46.11275 C395.035686,49.923375 399.389412,50.83625 402.956118,48.298625 C404.831569,46.975375 405.903255,45.099375 406.447471,42.955375 C407.552647,38.6255 407.510784,34.262125 406.430725,29.923875 C405.894882,27.763125 404.798078,25.887125 402.905882,24.6225 C399.598725,22.39475 394.993824,23.709625 392.825333,27.5035 C391.217804,30.325875 390.807549,33.41625 390.891275,36.4145 L390.891275,36.4145 Z" id="Fill-3" sketch:type="MSShapeGroup"></path>
            <path d="M228.32149,11.498875 L228.32149,23.441625 L229.836922,23.441625 C237.229882,23.441625 244.631216,23.441625 252.032549,23.45 C254.644784,23.45 255.724843,24.530375 255.741588,27.143375 C255.749961,28.39125 255.749961,29.639125 255.741588,30.895375 C255.724843,33.5335 254.669902,34.613875 252.066039,34.613875 L230.004373,34.613875 L228.346608,34.613875 C228.32149,35.183375 228.271255,35.669125 228.271255,36.154875 L228.271255,54.337 C228.271255,56.690375 227.140961,57.83775 224.813392,57.8545 C222.318373,57.87125 219.81498,57.87125 217.328333,57.8545 C215.067745,57.83775 213.887216,56.682 213.887216,54.445875 C213.878843,37.52 213.878843,20.58575 213.878843,3.659875 C213.887216,1.532625 214.98402,0.335 217.093902,0.326625 C229.719706,0.3015 242.34551,0.3015 254.971314,0.326625 C256.922118,0.335 258.002176,1.5075 258.035667,3.492375 C258.060784,5.100375 258.060784,6.725125 258.035667,8.3415 C258.010549,10.06675 257.139804,11.07175 255.415059,11.381625 C254.879216,11.482125 254.326627,11.498875 253.765667,11.498875 L229.912275,11.498875 L228.32149,11.498875" id="Fill-4" sketch:type="MSShapeGroup"></path>
            <path d="M67.4429608,109.009 C67.1080588,113.456125 69.5779608,117.543125 73.3204902,118.94175 C77.7077059,120.574875 83.0410196,119.033875 85.7704706,115.348875 C87.6877843,112.752625 88.6003922,112.5265 91.4470588,113.958625 C92.1838431,114.327125 92.929,114.695625 93.6741569,115.0725 C95.9431176,116.219875 96.4287255,117.961875 94.9216667,120.055625 C92.1922157,123.841125 88.6171373,126.563 84.1545686,127.928125 C76.016451,130.423875 68.2467255,129.904625 61.4063529,124.310125 C57.3456667,120.98525 55.4199804,116.42925 54.7836667,111.312125 C54.0217647,105.215125 54.7250588,99.319125 57.7224314,93.867 C61.0128431,87.912375 66.2373137,84.80525 72.8934902,84.009625 C77.649098,83.440125 82.2958627,83.90075 86.6328431,86.1285 C92.4768824,89.118375 95.4240196,94.21875 96.7636275,100.3995 C97.0985294,101.974 97.2408627,103.590375 97.3580784,105.198375 C97.5506471,107.878375 96.437098,109.009 93.7243922,109.009 L69.0337451,109.009 L67.4429608,109.009 L67.4429608,109.009 Z M84.5145882,101.094625 C84.5313333,96.3125 81.2576667,92.987625 76.535549,92.853625 C71.838549,92.728 67.8364706,96.387875 67.6104118,101.094625 L84.5145882,101.094625 L84.5145882,101.094625 Z" id="Fill-5" sketch:type="MSShapeGroup"></path>
            <path d="M213.40998,109.009 C212.731804,115.633625 218.324667,120.6 224.821765,119.419125 C227.944725,118.849625 230.381137,117.33375 232.156118,114.68725 C233.286412,112.9955 234.75998,112.668875 236.593569,113.58175 C237.631765,114.092625 238.669961,114.6035 239.691412,115.12275 C241.826412,116.2115 242.303647,117.90325 240.938922,119.904875 C238.971373,122.79425 236.401,125.047125 233.278039,126.571375 C225.868333,130.19775 218.316294,130.43225 210.898216,126.738875 C204.576941,123.589875 201.537706,118.00375 200.666961,111.211625 C199.921804,105.382625 200.59998,99.670875 203.371294,94.38625 C206.737059,87.95425 212.204333,84.679625 219.329373,83.96775 C224.009627,83.49875 228.547549,84.009625 232.758941,86.237375 C238.561118,89.302625 241.441275,94.444875 242.73902,100.634 C243.073922,102.250375 243.233,103.917 243.308353,105.57525 C243.417196,107.8365 242.236667,109.000625 239.959333,109.000625 C231.678882,109.017375 223.406804,109.009 215.134725,109.009 L213.40998,109.009 L213.40998,109.009 Z M230.481608,101.111375 C230.339275,96.069625 226.931647,92.786625 222.050451,92.84525 C217.495784,92.8955 213.560686,96.7145 213.552314,101.111375 L230.481608,101.111375 L230.481608,101.111375 Z" id="Fill-6" sketch:type="MSShapeGroup"></path>
            <path d="M299.144882,39.052625 C298.784863,43.575125 301.279882,47.65375 305.11451,49.044 C309.560333,50.643625 314.784804,49.085875 317.505882,45.333875 C317.757059,44.998875 317.966373,44.63875 318.234294,44.3205 C319.188765,43.16475 320.612098,42.838125 321.976824,43.474625 C323.182471,44.044125 324.39649,44.622 325.57702,45.24175 C327.552941,46.271875 328.030176,47.98875 326.791039,49.856375 C324.848608,52.7625 322.244745,54.94 319.188765,56.589875 C311.109255,60.98675 300.082608,60.18275 293.325961,54.62175 C289.215039,51.255 287.14702,46.740875 286.477216,41.5735 C285.673451,35.283875 286.401863,29.212 289.608549,23.6175 C293.007804,17.70475 298.299255,14.74 304.947059,14.061625 C309.284039,13.61775 313.537294,13.9695 317.547745,15.82875 C323.86902,18.76 327.075706,24.03625 328.473922,30.593875 C328.833941,32.302375 328.99302,34.0695 329.051627,35.8115 C329.143725,37.922 327.954824,39.052625 325.828196,39.052625 C317.455647,39.061 309.099843,39.052625 300.735667,39.052625 L299.144882,39.052625 L299.144882,39.052625 Z M316.25,31.20525 C316.141157,26.41475 312.934471,23.073125 308.396549,22.922375 C303.540471,22.76325 299.66398,26.28075 299.270471,31.20525 L316.25,31.20525 L316.25,31.20525 Z" id="Fill-7" sketch:type="MSShapeGroup"></path>
            <path d="M175.239529,29.79825 C175.155804,28.449875 175.155804,27.243875 174.97998,26.063 C174.670196,23.986 173.56502,22.855375 171.480255,22.512 C169.027098,22.11 165.669706,22.713 164.288235,25.67775 C163.693784,26.934 162.630471,27.41975 161.223882,27.38625 C159.013529,27.31925 156.786431,27.377875 154.567706,27.361125 C152.164784,27.35275 151.109843,25.970875 151.796392,23.63425 C153.119255,19.187125 156.342686,16.607625 160.579196,15.35975 C166.841863,13.508875 173.17151,13.575875 179.367196,15.69475 C185.110765,17.6545 187.522059,21.239 187.522059,27.28575 C187.522059,34.7395 187.505314,42.184875 187.547176,49.63025 C187.555549,50.80275 187.731373,52.00875 188.016039,53.1645 C188.727706,56.146 187.455078,57.846125 184.390725,57.8545 C183.051118,57.862875 181.71151,57.8545 180.371902,57.8545 C177.533608,57.8545 176.621,57.06725 176.286098,54.136 C175.323255,54.780875 174.41902,55.39225 173.514784,55.9785 C168.909882,58.951625 163.919843,59.805875 158.678627,58.331875 C153.454157,56.86625 150.389804,53.223125 149.594412,47.905 C148.79902,42.570125 151.051235,38.47475 155.371471,35.42625 C158.72049,33.0645 162.655588,32.3945 166.515333,31.54025 C169.353627,30.912125 172.208667,30.40125 175.239529,29.79825 L175.239529,29.79825 Z M175.231157,37.411125 C171.672824,38.67575 168.482882,39.789625 165.292941,40.962125 C164.69849,41.179875 164.137529,41.548375 163.643549,41.950375 C162.295569,43.014 161.475059,44.362375 161.885314,46.154625 C162.345804,48.08925 163.610059,49.245 165.58598,49.59675 C169.487588,50.291875 173.950157,46.891625 174.728804,42.536625 C175.005098,40.9705 175.055333,39.354125 175.231157,37.411125 L175.231157,37.411125 Z" id="Fill-8" sketch:type="MSShapeGroup"></path>
            <path d="M359.519333,54.1025 C354.830706,58.616625 349.338314,59.772375 343.284961,58.67525 C337.784196,57.678625 334.184,53.31525 334.083529,47.2685 C333.907706,37.645625 333.949569,28.02275 333.932824,18.40825 C333.924451,16.440125 335.063118,15.351375 337.064157,15.317875 C339.098686,15.267625 341.141588,15.29275 343.176118,15.3095 C345.478569,15.32625 346.558627,16.406625 346.558627,18.718125 C346.575373,26.58225 346.567,34.446375 346.567,42.3105 C346.567,45.828 347.45449,47.427625 349.899275,48.365625 C352.57849,49.39575 356.346137,48.633625 358.154608,46.6655 C359.217922,45.518125 359.569569,44.094375 359.569569,42.5785 C359.594686,34.714375 359.611431,26.85025 359.619804,18.986125 C359.628176,16.33125 360.641255,15.3095 363.295353,15.301125 C365.195922,15.301125 367.088118,15.276 368.988686,15.3095 C371.056706,15.343 372.178627,16.415 372.178627,18.492 C372.203745,30.560375 372.203745,42.637125 372.178627,54.713875 C372.178627,56.656875 370.998098,57.795875 369.055667,57.846125 C367.247196,57.888 365.438725,57.8545 363.638627,57.8545 C360.733353,57.8545 359.845863,57.075625 359.519333,54.1025" id="Fill-9" sketch:type="MSShapeGroup"></path>
            <path d="M115.467902,88.62425 C119.721157,84.311125 125.004235,83.557375 130.597098,84.495375 C136.893255,85.550625 140.116686,89.068125 140.267392,95.433125 C140.493451,105.27375 140.367863,115.131125 140.35949,124.9885 C140.351118,126.537875 139.204078,127.676875 137.462588,127.760625 C135.252235,127.8695 133.016765,127.877875 130.814784,127.760625 C128.939333,127.6685 127.90951,126.370375 127.901137,124.3855 C127.884392,116.420875 127.884392,108.464625 127.850902,100.51675 C127.834157,97.007625 126.26849,94.947375 123.262745,94.344375 C118.783431,93.439875 115.534882,95.75975 115.409294,100.3325 C115.174863,108.18825 115.191608,116.052375 115.124627,123.9165 C115.107882,126.81425 114.136667,127.8025 111.22302,127.810875 C109.464784,127.810875 107.706549,127.836 105.948314,127.8025 C103.779824,127.760625 102.607667,126.571375 102.599294,124.419 C102.590922,112.44275 102.590922,100.4665 102.599294,88.481875 C102.607667,86.455125 103.746333,85.366375 105.814353,85.349625 C107.572588,85.34125 109.322451,85.349625 111.080686,85.349625 C114.178529,85.349625 114.546922,85.617625 115.467902,88.62425" id="Fill-10" sketch:type="MSShapeGroup"></path>
            <path d="M118.733196,18.818625 C122.567824,14.631125 127.457392,14.011375 132.57302,14.338 C139.656196,14.798625 143.616412,19.24575 143.666647,26.8 C143.725255,35.216875 143.700137,43.63375 143.70851,52.059 C143.70851,52.938375 143.725255,53.81775 143.700137,54.697125 C143.649902,56.615 142.502863,57.80425 140.585549,57.846125 C138.592882,57.888 136.600216,57.87125 134.615922,57.8545 C132.355333,57.83775 131.199922,56.682 131.191549,54.429125 C131.183176,47.025625 131.191549,39.622125 131.191549,32.218625 C131.191549,31.57375 131.183176,30.928875 131.158059,30.275625 C130.973863,26.599 128.947706,24.446625 125.556824,24.312625 C121.429157,24.1535 119.143451,25.987625 118.716451,29.89875 C118.557373,31.364375 118.473647,32.84675 118.465275,34.32075 C118.440157,40.98725 118.456902,47.65375 118.448529,54.311875 C118.448529,56.749 117.343353,57.846125 114.890196,57.8545 C112.998,57.862875 111.097431,57.87125 109.205235,57.8545 C107.112098,57.829375 105.914824,56.66525 105.906451,54.58825 C105.898078,42.56175 105.898078,30.53525 105.906451,18.500375 C105.914824,16.557375 107.08698,15.42675 109.029412,15.401625 C110.879745,15.3765 112.721706,15.39325 114.572039,15.39325 C117.368471,15.39325 118.038275,15.920875 118.733196,18.818625" id="Fill-11" sketch:type="MSShapeGroup"></path>
            <path d="M72.7092941,18.7935 C77.5653725,14.078375 83.3089412,13.492125 89.3957843,14.89075 C94.5030392,16.06325 97.4334314,19.605875 97.5757647,24.8905 C97.793451,33.48325 97.7683333,42.076 97.8436863,50.66875 C97.8520588,51.916625 97.8604314,53.172875 97.8353137,54.42075 C97.793451,56.656875 96.6129216,57.829375 94.3941961,57.8545 C92.4433922,57.87125 90.5093333,57.87125 88.5752745,57.8545 C86.5574902,57.829375 85.3685882,56.7155 85.2932353,54.697125 C85.2178824,52.7625 85.2848627,50.811125 85.2681176,48.8765 C85.2346275,42.49475 85.2597451,36.121375 85.1257843,29.739625 C85.0671765,26.540375 82.9238039,24.513625 79.7924706,24.321 C75.9327255,24.0865 73.5716667,25.669375 72.952098,29.06125 C72.692549,30.552 72.6088235,32.093 72.600451,33.608875 C72.5669608,40.45125 72.5920784,47.302 72.5920784,54.136 C72.5920784,56.723875 71.4785294,57.846125 68.8914118,57.8545 C67.0410784,57.862875 65.1907451,57.87125 63.3404118,57.8545 C61.2054118,57.83775 60.0332549,56.73225 60.0332549,54.646875 C60.0081373,42.5785 60.0081373,30.510125 60.0332549,18.44175 C60.0332549,16.557375 61.163549,15.435125 63.0473725,15.401625 C65.0316667,15.368125 67.0159608,15.39325 69.0086275,15.39325 C71.4952745,15.401625 72.4413725,16.2475 72.7092941,18.7935" id="Fill-12" sketch:type="MSShapeGroup"></path>
            <path d="M150.096765,93.908875 C148.129216,93.339375 145.977471,94.562125 144.545765,92.820125 C144.018294,92.17525 143.80898,91.161875 143.70851,90.2825 C143.507569,88.708 143.666647,87.024625 145.424882,86.4635 C146.831471,86.019625 148.40551,86.086625 150.096765,85.91075 L150.096765,82.69475 C150.096765,80.467 150.071647,78.256 150.105137,76.036625 C150.138627,74.194125 151.310784,72.954625 153.127627,72.904375 C155.287745,72.84575 157.464608,72.84575 159.641471,72.904375 C161.382961,72.94625 162.56349,74.177375 162.56349,75.92775 C162.59698,78.792 162.580235,81.664625 162.580235,84.528875 L162.580235,86.17875 C164.380333,86.17875 166.038098,86.170375 167.679118,86.187125 C169.931333,86.203875 171.07,87.3345 171.10349,89.587375 C171.153725,92.57725 170.190882,93.858625 167.737725,93.934 C166.071588,93.98425 164.413824,93.942375 162.555118,93.942375 C162.555118,94.45325 162.546745,94.897125 162.546745,95.332625 C162.555118,101.572 162.546745,107.81975 162.555118,114.059125 C162.555118,116.940125 163.551451,117.8865 166.414863,117.727375 C169.177804,117.585 170.291353,118.648625 170.316471,121.4375 C170.316471,122.417375 170.324843,123.3805 170.308098,124.360375 C170.28298,126.269875 169.403863,127.501 167.553529,127.777375 C164.011941,128.305 160.46198,128.3385 156.979,127.392125 C153.027157,126.31175 150.565627,123.372125 150.364686,119.301875 C150.138627,114.913375 150.147,110.524875 150.105137,106.136375 C150.071647,102.0745 150.096765,98.00425 150.096765,93.908875" id="Fill-13" sketch:type="MSShapeGroup"></path>
            <path d="M273.047647,19.01125 C275.726863,17.847125 278.355843,16.683 281.009941,15.5775 C281.587647,15.343 282.265824,15.2425 282.91051,15.234125 C284.25849,15.22575 285.271569,16.19725 285.305059,17.60425 C285.372039,19.68125 285.355294,21.766625 285.305059,23.843625 C285.271569,25.250625 284.442686,26.021125 283.094706,26.28075 C281.185765,26.640875 279.260078,26.892125 277.393,27.394625 C274.814255,28.08975 273.608608,29.48 273.55,32.151625 C273.407667,38.1565 273.441157,44.16975 273.399294,50.183 C273.390922,51.70725 273.424412,53.2315 273.390922,54.764125 C273.340686,56.5815 272.160157,57.795875 270.343314,57.83775 C268.166451,57.896375 265.989588,57.896375 263.812725,57.846125 C262.079608,57.80425 260.932569,56.63175 260.80698,54.8395 C260.74,54.01875 260.781863,53.18125 260.781863,52.34375 L260.781863,19.17875 C260.781863,16.188875 261.778196,15.19225 264.775569,15.19225 L269.489314,15.19225 C271.967588,15.200625 272.963922,16.205625 273.030902,18.7265 C273.030902,18.91075 273.05602,19.095 273.047647,19.01125" id="Fill-14" sketch:type="MSShapeGroup"></path>
            <path d="M187.312745,88.934125 C189.883118,87.8035 192.470235,86.656125 195.065725,85.550625 C195.526216,85.358 196.053686,85.291 196.547667,85.20725 C198.222176,84.930875 199.494804,85.894 199.553412,87.61925 C199.620392,89.604125 199.61202,91.597375 199.553412,93.58225 C199.519922,95.12325 198.741275,95.935625 197.225843,96.220375 C195.37551,96.572125 193.500059,96.856875 191.666471,97.30075 C189.221686,97.887 187.831843,99.495 187.773235,102.032625 C187.681137,106.471375 187.681137,110.910125 187.65602,115.348875 C187.639275,118.30525 187.664392,121.27 187.647647,124.23475 C187.630902,126.63 186.47549,127.769 184.055824,127.8025 C182.20549,127.827625 180.355157,127.836 178.504824,127.8025 C176.185627,127.760625 175.038588,126.57975 175.038588,124.243125 C175.030216,112.359 175.030216,100.4665 175.038588,88.574 C175.038588,86.270875 176.219118,85.115125 178.563431,85.10675 C180.271431,85.09 181.987804,85.098375 183.695804,85.10675 C186.199196,85.10675 187.203902,86.095 187.279255,88.615875 C187.287627,88.82525 187.321118,89.034625 187.312745,88.934125" id="Fill-15" sketch:type="MSShapeGroup"></path>
        </g>
    </g>
</svg>