<?xml version="1.0" encoding="UTF-8" standalone="no"?>
<svg width="44px" height="44px" viewBox="0 0 44 44" version="1.1" xmlns="http://www.w3.org/2000/svg" xmlns:xlink="http://www.w3.org/1999/xlink" xmlns:sketch="http://www.bohemiancoding.com/sketch/ns">
    <!-- Generator: Sketch 3.2.2 (9983) - http://www.bohemiancoding.com/sketch -->
    <title>icon-zoom</title>
    <desc>Created with Sketch.</desc>
    <defs></defs>
    <g id="Page-1" stroke="none" stroke-width="1" fill="none" fill-rule="evenodd" sketch:type="MSPage">
        <g id="icon-zoom" sketch:type="MSLayerGroup" stroke="#E30641" stroke-width="0.5" fill="#E30641">
            <g id="Group" transform="translate(0.198374, 0.643666)" sketch:type="MSShapeGroup">
                <g transform="translate(0.403167, 0.000000)" id="Shape">
                    <path d="M12.7149504,31.0477369 L1.40150904,42.3611783 C1.36405851,42.3957273 1.35560268,42.405622 1.31415981,42.4354778 C1.25204381,42.4802264 1.18273066,42.5148428 1.10964107,42.5376185 C1.05391889,42.5549823 0.998491714,42.5627413 0.940675031,42.5685827 C0.921550916,42.5689679 0.902426844,42.569353 0.883302558,42.5697382 C0.832442756,42.5666618 0.819449052,42.5674178 0.769208752,42.5582109 C0.69390666,42.5444113 0.620926094,42.518402 0.553869481,42.4814667 C0.486812867,42.4445315 0.425824287,42.3967503 0.373914882,42.3404813 C0.202933002,42.1551397 0.142334763,41.8860778 0.217354253,41.6453317 C0.240129918,41.5722422 0.274746392,41.502929 0.31949498,41.440813 C0.349350615,41.3993703 0.359245532,41.3909143 0.393794497,41.3534638 L11.7072786,30.0399797 C10.4786698,28.7101387 9.45343179,27.1951485 8.68085533,25.5570832 C7.83786352,23.7696964 7.29861538,21.8419321 7.08672804,19.8772969 C6.87642601,17.9274076 6.98881609,15.9439138 7.41948821,14.0305147 C7.79251852,12.3732188 8.40360998,10.7707375 9.23093683,9.28694892 C10.2002872,7.54847232 11.4649331,5.97803058 12.9501582,4.65334567 C14.4662215,3.30115302 16.2117781,2.21104055 18.0946254,1.44767752 C20.1520916,0.613518626 22.3642706,0.170577468 24.584124,0.14454474 C26.8381546,0.118112094 29.0938698,0.519421153 31.1982924,1.32827498 C33.0898059,2.05529738 34.8513994,3.10895804 36.3887626,4.4289657 C37.9291955,5.75161126 39.2449876,7.33437461 40.2560186,9.09544655 C41.138378,10.6323993 41.7866609,12.3016149 42.1758008,14.0304634 C42.6064716,15.9438496 42.7188626,17.9273392 42.508561,19.8772456 C42.3044557,21.7696826 41.7965024,23.6273437 41.0062857,25.3590823 C40.2526406,27.0106834 39.2424861,28.5427323 38.0254849,29.8896064 C37.237329,30.7618588 36.3642044,31.5576762 35.4212416,32.259786 C34.505932,32.9413056 33.5249825,33.5342524 32.4958069,34.0272924 C31.0029118,34.7424805 29.4097166,35.2465295 27.7774231,35.5217992 C27.2500006,35.6107453 26.7186063,35.6760815 26.1853437,35.7175834 C25.8656567,35.7424636 25.5454961,35.7575492 25.2249844,35.7662341 C25.0825244,35.7692036 24.9401238,35.7709099 24.7976334,35.7713554 C24.0134194,35.7689035 23.2303725,35.7200899 22.4527725,35.6172801 C20.7433043,35.3912643 19.0683127,34.9169616 17.4950962,34.2108415 C16.3213532,33.6840176 15.2059263,33.0281074 14.1740358,32.2597892 C13.6666435,31.8819957 13.1794651,31.477063 12.7149461,31.0477005 L12.7149504,31.0477369 Z M24.797146,34.3440472 C25.518884,34.3417906 26.2395575,34.296886 26.9552117,34.202267 C28.5278809,33.9943382 30.0687926,33.558097 31.5161337,32.9084887 C32.5953354,32.4241064 33.6208855,31.8209586 34.5696499,31.1145306 C35.3253772,30.5518363 36.0323523,29.9236776 36.6814219,29.2407471 C37.88257,27.9769349 38.881134,26.524083 39.6249757,24.9469503 C40.4004166,23.3027969 40.8962484,21.5294461 41.0911582,19.7222771 C41.2847051,17.9277461 41.1813314,16.1022144 40.7849644,14.3412964 C40.4492948,12.8500217 39.9041954,11.406939 39.1680451,10.067209 C38.2696359,8.43218784 37.0880733,6.95631729 35.6960428,5.71475411 C34.3016779,4.47110884 32.6964474,3.46832508 30.9647046,2.76624092 C29.0717289,1.99878208 27.0363236,1.59135642 24.9939366,1.56742717 C22.9198605,1.54312661 20.8442069,1.91209254 18.9077764,2.65637674 C17.168201,3.32500185 15.5482548,4.29409142 14.1344113,5.5080699 C12.7166259,6.72541738 11.5052597,8.18195898 10.5747083,9.80285008 C9.82899825,11.1017802 9.26457672,12.5037894 8.90078122,13.9566499 C8.43026392,15.8357135 8.2954273,17.7964068 8.50314188,19.7222857 C8.69091057,21.463242 9.15807726,23.1721929 9.88503125,24.7653411 C10.5781671,26.284363 11.5074144,27.6932855 12.6267063,28.9320098 C13.3524375,29.7351765 14.156361,30.4680647 15.0246459,31.1145648 C15.8663166,31.7412528 16.7683214,32.2865164 17.7146959,32.7398852 C19.0877481,33.3976594 20.5530969,33.8611908 22.0543247,34.1143654 C22.5398742,34.1962498 23.0290706,34.2563931 23.5199899,34.2946 C23.814235,34.3175003 24.1089179,34.3313722 24.4039184,34.3393661 C24.534994,34.3420983 24.6660144,34.3436682 24.7971178,34.3440782 L24.797146,34.3440472 Z"></path>
                </g>
            </g>
        </g>
    </g>
</svg>