<?xml version="1.0" encoding="UTF-8" standalone="no"?>
<svg width="450px" height="188px" viewBox="0 0 450 188" version="1.1" xmlns="http://www.w3.org/2000/svg" xmlns:xlink="http://www.w3.org/1999/xlink" xmlns:sketch="http://www.bohemiancoding.com/sketch/ns">
    <!-- Generator: Sketch 3.2.2 (9983) - http://www.bohemiancoding.com/sketch -->
    <title>warner music logo</title>
    <desc>Created with Sketch.</desc>
    <defs></defs>
    <g id="Page-1" stroke="none" stroke-width="1" fill="none" fill-rule="evenodd" sketch:type="MSPage">
        <g id="warner-music-logo" sketch:type="MSLayerGroup" fill="#151515">
            <path d="M226.261,136.75 C190.786,136.75 172.347,128.932 161.323,110.494 C155.11,99.873 152.905,80.853 152.905,68.627 C152.905,56.404 155.11,37.385 161.323,26.764 C172.347,8.324 190.786,0.505 226.261,0.505 C261.733,0.505 280.173,8.324 291.194,26.764 C297.409,37.385 299.612,56.404 299.612,68.627 C299.612,80.853 297.409,99.873 291.194,110.494 C280.173,128.932 261.733,136.75 226.261,136.75 L226.261,136.75 Z M244.089,107.131 C240.077,107.131 234.267,105.326 231.464,98.912 L213.825,56.223 C210.017,46.603 217.435,37.584 226.052,37.584 C230.06,37.584 235.872,39.391 238.677,45.801 L256.314,88.488 C260.122,98.111 252.704,107.131 244.089,107.131 L244.089,107.131 Z M208.615,107.131 C204.606,107.131 198.794,105.326 195.988,98.912 L178.353,56.223 C174.544,46.603 181.96,37.584 190.577,37.584 C194.588,37.584 200.399,39.391 203.206,45.801 L220.841,88.488 C224.649,98.111 217.231,107.131 208.615,107.131 L208.615,107.131 Z M266.235,74.875 C262.226,74.875 256.413,73.07 253.61,66.656 L249.3,56.223 C245.491,46.603 252.905,37.584 261.524,37.584 C265.532,37.584 271.345,39.391 274.151,45.801 L278.462,56.236 C282.271,65.857 274.853,74.875 266.235,74.875 L266.235,74.875 Z" id="Fill-1" sketch:type="MSShapeGroup"></path>
            <path d="M30.972,164.103 L23.982,186.015 C23.719,186.847 22.925,187.375 22.093,187.375 C21.301,187.375 20.544,186.847 20.318,186.053 L15.861,170.07 L11.363,186.053 C11.138,186.847 10.419,187.375 9.627,187.375 C8.794,187.375 8.002,186.847 7.737,186.015 L0.71,164.103 C0.672,163.913 0.634,163.762 0.634,163.574 C0.597,162.741 1.126,161.948 1.957,161.684 C2.146,161.608 2.335,161.571 2.523,161.571 C3.355,161.571 4.11,162.1 4.375,162.932 L9.55,179.139 L14.122,162.893 C14.274,162.326 14.803,161.571 15.861,161.571 C16.917,161.571 17.447,162.326 17.598,162.893 L22.131,179.139 L27.307,162.932 C27.572,162.1 28.327,161.571 29.159,161.571 C29.349,161.571 29.538,161.608 29.725,161.684 C30.557,161.948 31.085,162.704 31.085,163.535 C31.085,163.725 31.048,163.913 30.972,164.103 L30.972,164.103 Z M55.105,187.185 C54.84,187.3 54.577,187.375 54.311,187.375 C53.594,187.375 52.876,186.96 52.575,186.242 L50.194,180.878 L38.558,180.878 L36.177,186.242 C35.876,186.96 35.119,187.375 34.402,187.375 C34.138,187.375 33.91,187.338 33.646,187.224 C32.966,186.922 32.55,186.204 32.55,185.486 C32.55,185.222 32.588,184.919 32.701,184.654 L42.637,162.704 C42.94,162.061 43.62,161.571 44.375,161.571 C45.132,161.571 45.812,162.023 46.113,162.704 L56.051,184.654 C56.163,184.919 56.201,185.185 56.201,185.449 C56.201,186.165 55.823,186.885 55.105,187.185 L55.105,187.185 Z M44.375,167.881 L40.107,177.439 L48.645,177.439 L44.375,167.881 L44.375,167.881 Z M77.657,175.813 C77.657,175.813 77.81,176.079 81.927,184.542 C82.078,184.806 82.116,185.07 82.116,185.373 C82.116,186.129 81.737,186.847 81.021,187.185 C80.757,187.338 80.454,187.375 80.152,187.375 C79.395,187.375 78.715,186.96 78.376,186.242 L73.654,176.494 L65.832,176.494 L65.832,185.373 C65.832,186.507 64.888,187.375 63.793,187.375 C62.696,187.375 61.791,186.469 61.791,185.373 L61.791,163.913 C61.791,162.816 62.696,161.911 63.793,161.911 L73.69,161.911 C78.414,161.911 82.23,164.178 82.23,169.24 C82.23,172.301 80.605,174.832 77.657,175.813 L77.657,175.813 Z M74.22,165.613 L65.832,165.613 L65.832,173.018 L74.22,173.018 C76.411,173.018 78.187,171.658 78.187,169.353 C78.187,167.048 76.45,165.613 74.22,165.613 L74.22,165.613 Z M108.005,187.375 C107.362,187.375 106.91,187.148 106.531,186.657 L93.232,168.75 L93.232,185.486 C93.232,186.544 92.364,187.375 91.306,187.375 C90.248,187.375 89.415,186.544 89.415,185.486 L89.415,163.497 C89.415,162.516 90.172,161.571 91.381,161.571 C91.947,161.571 92.515,161.873 92.816,162.288 C92.816,162.288 100.297,172.678 106.114,180.195 L106.114,163.497 C106.114,162.44 106.946,161.571 108.005,161.571 C109.061,161.571 109.93,162.44 109.93,163.497 L109.93,185.486 C109.93,186.544 109.061,187.375 108.005,187.375 L108.005,187.375 Z M134.526,187.072 L119.942,187.072 C118.811,187.072 117.903,186.165 117.903,185.032 L117.903,163.913 C117.903,162.78 118.811,161.911 119.942,161.911 L133.961,161.911 C135.018,161.911 135.888,162.704 135.888,163.762 C135.888,164.82 135.018,165.688 133.961,165.688 L121.945,165.688 L121.945,172.338 L128.672,172.338 C129.728,172.338 130.56,173.17 130.56,174.228 C130.56,175.285 129.728,176.116 128.672,176.116 L121.945,176.116 L121.945,183.295 L134.526,183.295 C135.585,183.295 136.416,184.126 136.416,185.185 C136.416,186.242 135.585,187.072 134.526,187.072 L134.526,187.072 Z M158.521,175.813 C158.521,175.813 158.672,176.079 162.79,184.542 C162.94,184.806 162.979,185.07 162.979,185.373 C162.979,186.129 162.6,186.847 161.884,187.185 C161.618,187.338 161.315,187.375 161.015,187.375 C160.259,187.375 159.577,186.96 159.237,186.242 L154.517,176.494 L146.694,176.494 L146.694,185.373 C146.694,186.507 145.751,187.375 144.655,187.375 C143.56,187.375 142.652,186.469 142.652,185.373 L142.652,163.913 C142.652,162.816 143.56,161.911 144.655,161.911 L154.553,161.911 C159.276,161.911 163.092,164.178 163.092,169.24 C163.092,172.301 161.468,174.832 158.521,175.813 L158.521,175.813 Z M155.081,165.613 L146.694,165.613 L146.694,173.018 L155.081,173.018 C157.273,173.018 159.05,171.658 159.05,169.353 C159.05,167.048 157.312,165.613 155.081,165.613 L155.081,165.613 Z M204.351,187.375 C203.293,187.375 202.462,186.544 202.462,185.486 L202.462,171.507 C197.928,180.688 195.435,186.356 195.435,186.356 C195.132,187.035 194.527,187.375 193.81,187.375 C193.017,187.375 192.487,187.035 192.148,186.317 L185.082,171.545 L185.082,185.449 C185.082,186.507 184.214,187.375 183.156,187.375 C182.099,187.375 181.268,186.507 181.268,185.449 L181.268,163.46 C181.268,162.401 182.099,161.571 183.156,161.571 C183.987,161.571 184.591,162.1 184.931,162.78 L193.81,181.367 L202.613,162.741 C202.914,162.061 203.558,161.571 204.351,161.571 C205.407,161.571 206.276,162.44 206.276,163.497 L206.276,185.486 C206.276,186.544 205.407,187.375 204.351,187.375 L204.351,187.375 Z M223.621,187.564 C217.237,187.564 213.118,183.371 213.118,176.909 L213.118,163.611 C213.118,162.477 213.989,161.571 215.121,161.571 C216.255,161.571 217.161,162.477 217.161,163.611 L217.161,177.427 C217.161,181.242 219.467,183.85 223.621,183.85 C227.774,183.85 230.038,181.242 230.038,177.427 L230.038,163.611 C230.038,162.477 230.946,161.571 232.08,161.571 C233.211,161.571 234.119,162.477 234.119,163.611 L234.119,176.909 C234.119,183.371 230,187.564 223.621,187.564 L223.621,187.564 Z M411.849,187.564 C405.468,187.564 401.337,183.371 401.337,176.909 L401.337,163.611 C401.337,162.477 402.212,161.571 403.349,161.571 C404.483,161.571 405.39,162.477 405.39,163.611 L405.39,177.427 C405.39,181.242 407.694,183.85 411.849,183.85 C416.007,183.85 418.273,181.242 418.273,177.427 L418.273,163.611 C418.273,162.477 419.179,161.571 420.314,161.571 C421.446,161.571 422.354,162.477 422.354,163.611 L422.354,176.909 C422.354,183.371 418.235,187.564 411.849,187.564 L411.849,187.564 Z M269.089,187.375 C267.955,187.375 267.049,186.469 267.049,185.334 L267.049,163.611 C267.049,162.477 267.955,161.571 269.089,161.571 C270.223,161.571 271.09,162.477 271.09,163.611 L271.09,185.334 C271.09,186.469 270.223,187.375 269.089,187.375 L269.089,187.375 Z M300.148,182.729 C297.843,185.674 294.026,187.564 290.212,187.564 C282.958,187.564 277.442,181.595 277.442,174.491 C277.442,167.39 282.958,161.457 290.212,161.457 C293.347,161.457 296.407,162.553 298.673,164.744 C299.091,165.16 299.317,165.65 299.317,166.143 C299.317,166.559 299.165,167.012 298.864,167.352 C298.524,167.767 298.034,167.994 297.542,167.994 C297.126,167.994 296.671,167.842 296.294,167.539 C294.481,165.992 292.78,165.198 290.212,165.198 C284.921,165.198 281.523,169.505 281.523,174.491 C281.523,179.479 284.921,183.861 290.212,183.861 C294.103,183.861 296.106,181.822 297.466,180.195 C297.806,179.819 298.259,179.63 298.749,179.63 C299.204,179.63 299.696,179.78 300.034,180.12 C300.413,180.461 300.601,180.914 300.601,181.405 C300.601,181.859 300.448,182.35 300.148,182.729 L300.148,182.729 Z M338.56,182.917 C336.105,186.09 332.101,187.564 328.246,187.564 C320.991,187.564 315.439,181.633 315.439,174.529 C315.439,167.427 320.991,161.457 328.246,161.457 C331.458,161.457 334.632,162.516 336.859,164.669 C337.314,165.084 337.54,165.65 337.54,166.18 C337.54,166.559 337.428,166.898 337.163,167.238 C336.823,167.691 336.331,167.918 335.804,167.918 C335.388,167.918 334.973,167.806 334.632,167.539 C333.159,166.407 331.458,165.16 328.246,165.16 C322.956,165.16 319.481,169.543 319.481,174.529 C319.481,179.517 322.956,183.861 328.246,183.861 C330.777,183.861 333.347,182.954 334.973,181.141 L334.973,176.645 L329.38,176.645 C328.398,176.645 327.528,175.853 327.528,174.832 C327.528,173.811 328.398,173.018 329.38,173.018 L336.974,173.018 C338.22,173.018 339.015,173.926 339.015,175.059 L339.015,181.633 C339.015,182.198 338.901,182.502 338.56,182.917 L338.56,182.917 Z M361.476,175.813 C361.476,175.813 361.626,176.079 365.743,184.542 C365.894,184.806 365.933,185.07 365.933,185.373 C365.933,186.129 365.554,186.847 364.837,187.185 C364.571,187.338 364.271,187.375 363.968,187.375 C363.21,187.375 362.53,186.96 362.19,186.242 L357.468,176.494 L349.648,176.494 L349.648,185.373 C349.648,186.507 348.704,187.375 347.608,187.375 C346.511,187.375 345.606,186.469 345.606,185.373 L345.606,163.913 C345.606,162.816 346.511,161.911 347.608,161.911 L357.509,161.911 C362.229,161.911 366.046,164.178 366.046,169.24 C366.046,172.301 364.421,174.832 361.476,175.813 L361.476,175.813 Z M358.036,165.613 L349.648,165.613 L349.648,173.018 L358.036,173.018 C360.227,173.018 362.003,171.658 362.003,169.353 C362.003,167.048 360.263,165.613 358.036,165.613 L358.036,165.613 Z M383.291,187.564 C376.039,187.564 370.484,181.595 370.484,174.491 C370.484,167.39 376.039,161.457 383.291,161.457 C390.545,161.457 396.053,167.39 396.053,174.491 C396.053,181.595 390.545,187.564 383.291,187.564 L383.291,187.564 Z M383.291,165.16 C378.04,165.16 374.525,169.467 374.525,174.491 C374.525,179.517 378.04,183.823 383.291,183.823 C388.543,183.823 392.02,179.517 392.02,174.491 C392.02,169.467 388.543,165.16 383.291,165.16 L383.291,165.16 Z M441.048,177.023 L433.304,177.023 L433.304,185.373 C433.304,186.507 432.398,187.375 431.265,187.375 C430.131,187.375 429.261,186.507 429.261,185.373 L429.261,163.913 C429.261,162.78 430.131,161.911 431.265,161.911 L441.048,161.911 C446.905,161.911 449.587,165.5 449.587,169.505 C449.587,173.509 446.905,177.023 441.048,177.023 L441.048,177.023 Z M441.579,165.613 L433.304,165.613 L433.304,173.282 L441.579,173.282 C444.223,173.282 445.507,171.432 445.507,169.505 C445.507,167.578 444.223,165.613 441.579,165.613 L441.579,165.613 Z M256.427,166.49 C254.62,165.774 252.39,165.16 250.321,165.16 C247.855,165.16 244.48,165.639 244.48,168.17 C244.48,170.99 249.642,172.086 252.489,173.03 C256.591,174.392 260.347,175.604 260.347,180.196 C260.347,185.677 255.251,187.564 250.226,187.564 C247.427,187.564 243.489,186.942 240.981,185.326 C240.304,184.889 240.089,184.301 240.089,183.628 C240.089,182.424 240.974,181.801 241.847,181.801 C242.415,181.801 243.136,182.175 243.136,182.175 C245.599,183.395 247.923,183.823 250.204,183.823 C252.743,183.823 256.306,183.182 256.306,180.348 C256.306,177.369 251.761,176.984 247.122,175.322 C243.778,174.114 240.437,172.699 240.437,168.182 C240.437,163.006 245.505,161.457 250.226,161.457 C252.61,161.457 255.741,162.137 258.032,163.1 C258.773,163.411 259.208,164.103 259.208,164.779 C259.208,165.782 258.593,166.66 257.44,166.66 C257.163,166.66 256.735,166.611 256.427,166.49 L256.427,166.49 Z" id="Fill-2" sketch:type="MSShapeGroup"></path>
        </g>
    </g>
</svg>